<?xml version="1.0" encoding="UTF-8"?>
<!DOCTYPE svg PUBLIC "-//W3C//DTD SVG 1.1//EN" "http://www.w3.org/Graphics/SVG/1.1/DTD/svg11.dtd">
<svg xmlns="http://www.w3.org/2000/svg" version="1.1" width="500px" height="500px" style="shape-rendering:geometricPrecision; text-rendering:geometricPrecision; image-rendering:optimizeQuality; fill-rule:evenodd; clip-rule:evenodd" xmlns:xlink="http://www.w3.org/1999/xlink">
<g><path style="opacity:1" fill="#000000" d="M -0.5,-0.5 C 166.167,-0.5 332.833,-0.5 499.5,-0.5C 499.5,166.167 499.5,332.833 499.5,499.5C 332.833,499.5 166.167,499.5 -0.5,499.5C -0.5,332.833 -0.5,166.167 -0.5,-0.5 Z"/></g>
<g><path style="opacity:1" fill="#00f8f8" d="M 317.5,91.5 C 319.857,91.3367 322.19,91.5034 324.5,92C 327.333,94.8333 330.167,97.6667 333,100.5C 333.635,102.635 333.301,104.635 332,106.5C 329.5,109 327,111.5 324.5,114C 322.167,114.667 319.833,114.667 317.5,114C 315.037,110.535 312.204,107.369 309,104.5C 308.333,103.167 308.333,101.833 309,100.5C 312.038,97.6306 314.871,94.6306 317.5,91.5 Z"/></g>
<g><path style="opacity:1" fill="#00bfd3" d="M 267.5,192.5 C 251.167,175.833 234.833,159.167 218.5,142.5C 226.522,137.07 234.522,137.236 242.5,143C 255.167,155.667 267.833,168.333 280.5,181C 277.217,186.122 272.883,189.956 267.5,192.5 Z"/></g>
<g><path style="opacity:1" fill="#00f4f7" d="M 326.5,173.5 C 318.555,167.224 311.222,160.224 304.5,152.5C 310.211,149.299 315.211,145.132 319.5,140C 321.971,139.294 324.305,139.627 326.5,141C 330.667,145.167 334.833,149.333 339,153.5C 340.373,155.695 340.706,158.029 340,160.5C 335.631,165.037 331.131,169.37 326.5,173.5 Z"/></g>
<g><path style="opacity:1" fill="#00b4cd" d="M 218.5,142.5 C 234.833,159.167 251.167,175.833 267.5,192.5C 264.696,193.638 261.696,193.805 258.5,193C 252.167,188 246.5,182.333 241.5,176C 238.673,174.336 235.673,173.17 232.5,172.5C 230.708,171.691 228.708,171.191 226.5,171C 220.297,164.965 214.297,158.798 208.5,152.5C 211.5,148.833 214.833,145.5 218.5,142.5 Z"/></g>
<g><path style="opacity:1" fill="#00dee8" d="M 304.5,152.5 C 311.222,160.224 318.555,167.224 326.5,173.5C 326.389,174.117 326.056,174.617 325.5,175C 323.167,175.667 320.833,175.667 318.5,175C 315.5,172 312.5,169 309.5,166C 302.843,162.388 296.843,163.221 291.5,168.5C 285.202,162.703 279.035,156.703 273,150.5C 272.517,149.552 272.351,148.552 272.5,147.5C 275.004,143.492 278.504,140.825 283,139.5C 284.627,139.625 286.127,140.125 287.5,141C 291.204,147.891 296.871,151.725 304.5,152.5 Z"/></g>
<g><path style="opacity:1" fill="#00cfde" d="M 272.5,147.5 C 272.351,148.552 272.517,149.552 273,150.5C 279.035,156.703 285.202,162.703 291.5,168.5C 291.491,170.308 291.991,171.975 293,173.5C 304,183.167 314.333,193.5 324,204.5C 324.667,207.833 324.667,211.167 324,214.5C 323.292,215.381 322.458,216.047 321.5,216.5C 309.082,205.084 297.415,193.084 286.5,180.5C 285.094,177.586 283.094,175.086 280.5,173C 274.691,169.188 269.524,164.688 265,159.5C 265.129,154.169 267.629,150.169 272.5,147.5 Z"/></g>
<g><path style="opacity:1" fill="#009dbe" d="M 208.5,152.5 C 214.297,158.798 220.297,164.965 226.5,171C 228.708,171.191 230.708,171.691 232.5,172.5C 228.253,172.178 224.253,173.011 220.5,175C 216.631,179.037 212.631,182.87 208.5,186.5C 201.833,181.833 196.167,176.167 191.5,169.5C 196.833,163.5 202.5,157.833 208.5,152.5 Z"/></g>
<g><path style="opacity:1" fill="#00a8c5" d="M 269.5,200.5 C 269.389,201.117 269.056,201.617 268.5,202C 279.702,213.369 291.035,224.535 302.5,235.5C 301.942,236.79 300.942,237.623 299.5,238C 296.833,238.667 294.167,238.667 291.5,238C 285.479,232.977 279.812,227.644 274.5,222C 269.23,219.004 263.563,217.838 257.5,218.5C 245.219,207.887 233.552,196.554 222.5,184.5C 223.29,183.206 224.29,182.039 225.5,181C 228.833,180.333 232.167,180.333 235.5,181C 241.113,186.613 246.779,192.279 252.5,198C 257.784,201.494 263.451,202.328 269.5,200.5 Z"/></g>
<g><path style="opacity:1" fill="#0084ae" d="M 191.5,169.5 C 196.167,176.167 201.833,181.833 208.5,186.5C 203.459,191.374 198.959,196.708 195,202.5C 194.502,205.817 194.335,209.15 194.5,212.5C 194.631,213.239 194.464,213.906 194,214.5C 185.964,206.632 178.131,198.632 170.5,190.5C 177.167,183.167 184.167,176.167 191.5,169.5 Z"/></g>
<g><path style="opacity:1" fill="#009bbd" d="M 222.5,184.5 C 233.552,196.554 245.219,207.887 257.5,218.5C 253.854,220.328 250.521,222.662 247.5,225.5C 246.761,225.631 246.094,225.464 245.5,225C 234.965,214.298 224.298,203.798 213.5,193.5C 216.167,190.167 219.167,187.167 222.5,184.5 Z"/></g>
<g><path style="opacity:1" fill="#00c5d9" d="M 286.5,180.5 C 297.415,193.084 309.082,205.084 321.5,216.5C 318.5,220.167 315.167,223.5 311.5,226.5C 300.113,216.114 289.446,205.114 279.5,193.5C 281.833,190.997 283.999,188.331 286,185.5C 286.494,183.866 286.66,182.199 286.5,180.5 Z"/></g>
<g><path style="opacity:1" fill="#007aa8" d="M 170.5,190.5 C 178.131,198.632 185.964,206.632 194,214.5C 194.464,213.906 194.631,213.239 194.5,212.5C 195.621,214.741 196.787,217.075 198,219.5C 205.5,227 213,234.5 220.5,242C 227.549,245.297 234.549,245.131 241.5,241.5C 246.833,247.167 252.167,252.833 257.5,258.5C 253.167,263.5 248.5,268.167 243.5,272.5C 217.116,247.117 191.45,221.117 166.5,194.5C 167.5,192.833 168.833,191.5 170.5,190.5 Z"/></g>
<g><path style="opacity:1" fill="#00b9d1" d="M 279.5,193.5 C 289.446,205.114 300.113,216.114 311.5,226.5C 308.833,229.833 305.833,232.833 302.5,235.5C 291.035,224.535 279.702,213.369 268.5,202C 269.056,201.617 269.389,201.117 269.5,200.5C 273.386,198.945 276.72,196.612 279.5,193.5 Z"/></g>
<g><path style="opacity:1" fill="#008cb3" d="M 213.5,193.5 C 224.298,203.798 234.965,214.298 245.5,225C 246.094,225.464 246.761,225.631 247.5,225.5C 244.037,229.464 240.37,233.298 236.5,237C 232.5,239 228.5,239 224.5,237C 216.237,229.41 208.737,221.243 202,212.5C 201.21,209.366 201.543,206.366 203,203.5C 206.369,199.963 209.869,196.629 213.5,193.5 Z"/></g>
<g><path style="opacity:1" fill="#006fa1" d="M 166.5,194.5 C 191.45,221.117 217.116,247.117 243.5,272.5C 239.83,276.665 235.163,278.665 229.5,278.5C 206.833,255.167 183.833,232.167 160.5,209.5C 160.037,203.437 162.037,198.437 166.5,194.5 Z"/></g>
<g><path style="opacity:1" fill="#00669b" d="M 160.5,209.5 C 183.833,232.167 206.833,255.167 229.5,278.5C 225.489,278.498 221.822,277.332 218.5,275C 200.333,256.833 182.167,238.667 164,220.5C 161.758,217.207 160.591,213.54 160.5,209.5 Z"/></g>
<g><path style="opacity:1" fill="#009dbe" d="M 266.5,249.5 C 260.773,243.778 255.44,237.778 250.5,231.5C 254.891,225.147 260.891,222.981 268.5,225C 272.981,228.314 276.981,232.148 280.5,236.5C 275.813,240.855 271.146,245.188 266.5,249.5 Z"/></g>
<g><path style="opacity:1" fill="#008fb5" d="M 250.5,231.5 C 255.44,237.778 260.773,243.778 266.5,249.5C 263.833,252.833 260.833,255.833 257.5,258.5C 252.167,252.833 246.833,247.167 241.5,241.5C 244.041,237.748 247.041,234.415 250.5,231.5 Z"/></g>
<g><path style="opacity:1" fill="#d3d3d3" d="M 172.5,301.5 C 172.334,308.175 172.5,314.842 173,321.5C 173.41,320.099 173.91,318.766 174.5,317.5C 175.244,312.115 176.244,306.782 177.5,301.5C 181.555,301.176 185.555,301.509 189.5,302.5C 186.885,310.344 184.885,318.344 183.5,326.5C 185.678,336.877 188.011,347.211 190.5,357.5C 186.5,357.5 182.5,357.5 178.5,357.5C 177.011,350.542 175.678,343.542 174.5,336.5C 174.108,334.821 173.608,333.154 173,331.5C 172.5,340.16 172.334,348.827 172.5,357.5C 168.833,357.5 165.167,357.5 161.5,357.5C 161.5,338.833 161.5,320.167 161.5,301.5C 165.167,301.5 168.833,301.5 172.5,301.5 Z"/></g>
<g><path style="opacity:1" fill="#494949" d="M 172.5,301.5 C 173.167,306.833 173.833,312.167 174.5,317.5C 173.91,318.766 173.41,320.099 173,321.5C 172.5,314.842 172.334,308.175 172.5,301.5 Z"/></g>
<g><path style="opacity:1" fill="#d1d1d1" d="M 198.5,301.5 C 202.437,301.207 206.27,301.54 210,302.5C 210.669,312.561 211.669,322.561 213,332.5C 213.57,322.138 214.403,311.805 215.5,301.5C 219.167,301.5 222.833,301.5 226.5,301.5C 227.443,311.483 228.276,321.483 229,331.5C 230.297,321.533 231.13,311.533 231.5,301.5C 235.5,301.5 239.5,301.5 243.5,301.5C 240.842,320.093 238.842,338.76 237.5,357.5C 232.833,357.5 228.167,357.5 223.5,357.5C 222.817,349.492 221.984,341.492 221,333.5C 219.968,341.486 219.135,349.486 218.5,357.5C 213.833,357.5 209.167,357.5 204.5,357.5C 202.44,338.834 200.44,320.167 198.5,301.5 Z"/></g>
<g><path style="opacity:1" fill="#d4d4d4" d="M 253.5,301.5 C 257.167,301.5 260.833,301.5 264.5,301.5C 264.5,320.167 264.5,338.833 264.5,357.5C 260.833,357.5 257.167,357.5 253.5,357.5C 253.5,338.833 253.5,320.167 253.5,301.5 Z"/></g>
<g><path style="opacity:1" fill="#cfcfcf" d="M 274.5,301.5 C 282.5,301.5 290.5,301.5 298.5,301.5C 298.5,305.167 298.5,308.833 298.5,312.5C 296.5,312.5 294.5,312.5 292.5,312.5C 292.5,327.5 292.5,342.5 292.5,357.5C 288.5,357.5 284.5,357.5 280.5,357.5C 280.5,342.5 280.5,327.5 280.5,312.5C 278.5,312.5 276.5,312.5 274.5,312.5C 274.5,308.833 274.5,305.167 274.5,301.5 Z"/></g>
<g><path style="opacity:1" fill="#d5d5d5" d="M 326.5,357.5 C 326.5,348.833 326.5,340.167 326.5,331.5C 324.5,331.5 322.5,331.5 320.5,331.5C 320.5,340.167 320.5,348.833 320.5,357.5C 316.833,357.5 313.167,357.5 309.5,357.5C 309.5,338.833 309.5,320.167 309.5,301.5C 313.167,301.5 316.833,301.5 320.5,301.5C 320.5,308.167 320.5,314.833 320.5,321.5C 322.5,321.5 324.5,321.5 326.5,321.5C 326.5,314.833 326.5,308.167 326.5,301.5C 330.167,301.5 333.833,301.5 337.5,301.5C 337.5,320.167 337.5,338.833 337.5,357.5C 333.833,357.5 330.167,357.5 326.5,357.5 Z"/></g>
<g><path style="opacity:1" fill="#606060" d="M 326.5,357.5 C 325.507,349.35 325.174,341.017 325.5,332.5C 324.167,332.5 322.833,332.5 321.5,332.5C 321.826,341.017 321.493,349.35 320.5,357.5C 320.5,348.833 320.5,340.167 320.5,331.5C 322.5,331.5 324.5,331.5 326.5,331.5C 326.5,340.167 326.5,348.833 326.5,357.5 Z"/></g>
<g><path style="opacity:1" fill="#5b5b5b" d="M 174.5,336.5 C 173.833,343.5 173.167,350.5 172.5,357.5C 172.334,348.827 172.5,340.16 173,331.5C 173.608,333.154 174.108,334.821 174.5,336.5 Z"/></g>
<g><path style="opacity:1" fill="#00e0e0" d="M 199.5,384.5 C 202.119,384.232 204.619,384.565 207,385.5C 207.167,385.833 207.333,386.167 207.5,386.5C 205.234,387.314 202.9,387.814 200.5,388C 199.167,390 199.167,392 200.5,394C 202.81,394.497 205.143,394.663 207.5,394.5C 207.5,395.5 207.5,396.5 207.5,397.5C 196.42,398.11 193.753,393.777 199.5,384.5 Z"/></g>
<g><path style="opacity:1" fill="#00e2e2" d="M 252.5,384.5 C 259.669,383.513 263.169,386.513 263,393.5C 259.011,398.356 254.678,398.689 250,394.5C 248.861,390.579 249.695,387.246 252.5,384.5 Z"/></g>
<g><path style="opacity:1" fill="#00e1e1" d="M 287.5,384.5 C 296.523,384.062 299.189,387.895 295.5,396C 287.329,399.806 283.495,397.306 284,388.5C 284.69,386.65 285.856,385.316 287.5,384.5 Z"/></g>
<g><path style="opacity:1" fill="#00e4e4" d="M 306.5,384.5 C 308.857,384.337 311.19,384.503 313.5,385C 313.957,385.414 314.291,385.914 314.5,386.5C 311.973,387.214 309.473,387.88 307,388.5C 305.524,392.844 307.024,395.178 311.5,395.5C 311.52,393.857 310.853,392.524 309.5,391.5C 311.045,390.548 312.712,390.215 314.5,390.5C 314.5,392.833 314.5,395.167 314.5,397.5C 303.363,398.217 300.696,393.884 306.5,384.5 Z"/></g>
<g><path style="opacity:1" fill="#00f9f9" d="M 175.5,384.5 C 174.817,386.176 173.483,386.843 171.5,386.5C 171.5,390.167 171.5,393.833 171.5,397.5C 170.833,397.5 170.167,397.5 169.5,397.5C 169.5,393.833 169.5,390.167 169.5,386.5C 168.167,386.5 166.833,386.5 165.5,386.5C 168.337,384.598 171.671,383.931 175.5,384.5 Z"/></g>
<g><path style="opacity:1" fill="#00e2e2" d="M 181.5,384.5 C 184.5,384.5 187.5,384.5 190.5,384.5C 190.5,385.5 190.5,386.5 190.5,387.5C 188.396,387.201 186.396,387.534 184.5,388.5C 186.045,389.452 187.712,389.785 189.5,389.5C 189.5,390.5 189.5,391.5 189.5,392.5C 187.833,392.5 186.167,392.5 184.5,392.5C 184.5,393.5 184.5,394.5 184.5,395.5C 186.604,395.201 188.604,395.534 190.5,396.5C 187.572,397.484 184.572,397.817 181.5,397.5C 181.5,393.167 181.5,388.833 181.5,384.5 Z"/></g>
<g><path style="opacity:1" fill="#00e3e3" d="M 214.5,384.5 C 215.5,384.5 216.5,384.5 217.5,384.5C 217.5,386.167 217.5,387.833 217.5,389.5C 219.167,389.5 220.833,389.5 222.5,389.5C 222.5,387.833 222.5,386.167 222.5,384.5C 223.5,384.5 224.5,384.5 225.5,384.5C 225.5,388.833 225.5,393.167 225.5,397.5C 224.5,397.5 223.5,397.5 222.5,397.5C 222.5,395.833 222.5,394.167 222.5,392.5C 220.833,392.5 219.167,392.5 217.5,392.5C 217.5,394.167 217.5,395.833 217.5,397.5C 216.5,397.5 215.5,397.5 214.5,397.5C 214.5,393.167 214.5,388.833 214.5,384.5 Z"/></g>
<g><path style="opacity:1" fill="#00eaea" d="M 236.5,391.5 C 236.217,390.711 235.717,390.044 235,389.5C 234.503,392.146 234.336,394.813 234.5,397.5C 232.57,393.627 231.903,389.294 232.5,384.5C 236.099,385.953 238.599,388.619 240,392.5C 240.497,389.854 240.664,387.187 240.5,384.5C 241.5,384.5 242.5,384.5 243.5,384.5C 243.5,388.833 243.5,393.167 243.5,397.5C 242.022,397.762 240.689,397.429 239.5,396.5C 238.74,394.64 237.74,392.973 236.5,391.5 Z"/></g>
<g><path style="opacity:1" fill="#00fdfd" d="M 271.5,384.5 C 271.5,388.167 271.5,391.833 271.5,395.5C 273.5,395.5 275.5,395.5 277.5,395.5C 275.365,397.369 272.698,398.036 269.5,397.5C 268.903,392.706 269.57,388.373 271.5,384.5 Z"/></g>
<g><path style="opacity:1" fill="#008484" d="M 271.5,384.5 C 269.57,388.373 268.903,392.706 269.5,397.5C 272.698,398.036 275.365,397.369 277.5,395.5C 275.5,395.5 273.5,395.5 271.5,395.5C 271.5,391.833 271.5,388.167 271.5,384.5 Z"/></g>
<g><path style="opacity:1" fill="#00e9e9" d="M 321.5,384.5 C 322.675,384.281 323.675,384.614 324.5,385.5C 326.167,390.833 327.833,390.833 329.5,385.5C 330.5,384.167 331.5,384.167 332.5,385.5C 329.453,388.927 328.12,392.927 328.5,397.5C 327.5,397.5 326.5,397.5 325.5,397.5C 325.662,395.473 325.495,393.473 325,391.5C 323.295,389.423 322.128,387.09 321.5,384.5 Z"/></g>
<g><path style="opacity:1" fill="#004f4f" d="M 165.5,386.5 C 166.833,386.5 168.167,386.5 169.5,386.5C 169.5,390.167 169.5,393.833 169.5,397.5C 168.521,394.375 168.187,391.042 168.5,387.5C 167.209,387.737 166.209,387.404 165.5,386.5 Z"/></g>
<g><path style="opacity:1" fill="#009595" d="M 175.5,384.5 C 176.404,385.209 176.737,386.209 176.5,387.5C 175.167,387.5 173.833,387.5 172.5,387.5C 172.813,391.042 172.479,394.375 171.5,397.5C 171.5,393.833 171.5,390.167 171.5,386.5C 173.483,386.843 174.817,386.176 175.5,384.5 Z"/></g>
<g><path style="opacity:1" fill="#081413" d="M 253.5,387.5 C 260.564,387.352 261.897,389.852 257.5,395C 252.632,394.711 251.299,392.211 253.5,387.5 Z"/></g>
<g><path style="opacity:1" fill="#050f0f" d="M 287.5,387.5 C 292.914,386.565 294.914,388.565 293.5,393.5C 287.153,395.82 285.153,393.82 287.5,387.5 Z"/></g>
<g><path style="opacity:1" fill="#008989" d="M 236.5,391.5 C 235.833,393.5 235.167,395.5 234.5,397.5C 234.336,394.813 234.503,392.146 235,389.5C 235.717,390.044 236.217,390.711 236.5,391.5 Z"/></g>
</svg>
